<?xml version="1.0"?>
<svg version="1.1" id="Layer_1" xmlns="http://www.w3.org/2000/svg" x="0" y="0" viewBox="0 0 100 100" xml:space="preserve"><path d="M50.5 25.1c-.2-.4-.8-.4-1 0L18.2 74.3c-.1.2-.1.5.1.7l.1.2h62.8c.1 0 .4 0 .5-.3.2-.3 0-.6 0-.6L50.5 25.1z" fill="#f4e6c8"/><path d="M57.2 20.6c-1.6-2.4-4.3-3.9-7.2-3.9-2.9 0-5.6 1.4-7.3 3.9L11.5 69.7c-1.8 2.7-2 6.1-.5 9 1.5 2.9 4.5 4.6 7.7 4.6h62.5c3.2 0 6.2-1.8 7.7-4.6 1.5-2.9 1.4-6.3-.4-9L57.2 20.6zm24.6 54.2c-.2.3-.4.3-.5.3H18.5l-.2-.1c-.2-.2-.2-.4-.1-.7l31.3-49.2c.3-.4.8-.4 1 0l31.3 49.1c0 .1.2.3 0 .6z" fill="#c33837"/><path fill="#e15c64" d="M61.9 52L57 47.1l-7 7-7-7-4.9 4.9 7 7-7 7 4.9 4.9 7-7 7 7 4.9-4.9-7-7z"/><metadata xmlns:d="https://loading.io/stock/"><d:name>error</d:name><d:tags>fail,disable,exception,errant,bad,break,stop,error,web application</d:tags><d:license>by</d:license><d:slug>6nl4qf</d:slug></metadata></svg>